<!DOCTYPE svg PUBLIC "-//W3C//DTD SVG 1.1//EN" "http://www.w3.org/Graphics/SVG/1.1/DTD/svg11.dtd">
<!-- Uploaded to: SVG Repo, www.svgrepo.com, Transformed by: SVG Repo Mixer Tools -->
<svg height="205px" width="205px" version="1.1" id="Layer_1" xmlns="http://www.w3.org/2000/svg" xmlns:xlink="http://www.w3.org/1999/xlink" viewBox="-151.04 -151.04 805.55 805.55" xml:space="preserve" fill="#000000">
<g id="SVGRepo_bgCarrier" stroke-width="0">
<path transform="translate(-151.04, -151.04), scale(50.346875)" fill="#7ed0ec" d="M9.166.33a2.25 2.25 0 00-2.332 0l-5.25 3.182A2.25 2.25 0 00.5 5.436v5.128a2.25 2.25 0 001.084 1.924l5.25 3.182a2.25 2.25 0 002.332 0l5.25-3.182a2.25 2.25 0 001.084-1.924V5.436a2.25 2.25 0 00-1.084-1.924L9.166.33z" strokewidth="0"/>
</g>
<g id="SVGRepo_tracerCarrier" stroke-linecap="round" stroke-linejoin="round"/>
<g id="SVGRepo_iconCarrier"> <g transform="translate(1 1)"> <g> <polygon style="fill:#106ed9;" points="361.667,464.067 361.667,498.2 3.267,498.2 3.267,3.267 276.333,3.267 276.333,37.4 276.333,464.067 310.467,464.067 "/> <path style="fill:#106ed9;" d="M405.187,496.493l-0.853,1.707h-42.667v-34.133h-85.333V37.4h153.6v34.133H310.467v102.4V242.2 h51.2h51.2h51.2H498.2v238.933c0-9.387-7.68-17.067-17.067-17.067c-3.413,0-6.827,0.853-9.387,2.56 C469.187,455.533,458.947,447,447,447c-11.947,0-22.187,8.533-24.747,19.627c-2.56-1.707-5.973-2.56-9.387-2.56 c-9.387,0-17.067,7.68-17.067,17.067C395.8,487.96,399.213,493.08,405.187,496.493z"/> </g> <path style="fill:#80D6FA;" d="M225.133,71.533v136.533h-51.2h-68.267h-51.2V71.533H225.133z M395.8,361.667h68.267v-51.2H395.8 V361.667z"/> <path style="fill:#FFD0A1;" d="M361.667,378.733v85.333H293.4v-153.6h68.267V378.733z M37.4,498.2h204.8V327.533H37.4V498.2z"/> <path style="fill:#50DD8E;" d="M481.133,464.067c9.387,0,17.067,7.68,17.067,17.067s-7.68,17.067-17.067,17.067h-68.267 c-2.56,0-5.973-0.853-7.68-1.707c-5.12-2.56-9.387-8.533-9.387-15.36c0-9.387,7.68-17.067,17.067-17.067 c3.413,0,6.827,0.853,9.387,2.56C424.813,455.533,435.053,447,447,447c11.947,0,22.187,8.533,24.747,19.627 C474.307,464.92,477.72,464.067,481.133,464.067L481.133,464.067z"/> <polygon style="fill:#ECF4F7;" points="310.467,242.2 464.067,242.2 464.067,173.933 310.467,173.933 "/> </g> <path style="fill:#51565F;" d="M482.133,503.467c-2.56,0-4.267-1.707-4.267-4.267c0-2.56,1.707-4.267,4.267-4.267 c6.827,0,12.8-5.973,12.8-12.8s-5.973-12.8-12.8-12.8c-2.56,0-5.12,0.853-6.827,1.707c-0.853,0.853-2.56,0.853-4.267,0 c-1.707-0.853-2.56-1.707-2.56-3.413c-2.56-9.387-11.093-16.213-20.48-16.213s-18.773,6.827-20.48,16.213 c0,1.707-0.853,2.56-2.56,3.413s-2.56,0-4.267,0c-1.707-1.707-4.267-1.707-6.827-1.707c-6.827,0-12.8,5.973-12.8,12.8 s5.973,12.8,12.8,12.8c2.56,0,4.267,1.707,4.267,4.267c0,2.56-1.707,4.267-4.267,4.267c-11.947,0-21.333-9.387-21.333-21.333 s9.387-21.333,21.333-21.333c2.56,0,4.267,0,6.827,0.853c4.267-11.093,15.36-17.92,27.307-17.92c11.947,0,23.04,6.827,27.307,17.92 c6.827-2.56,14.507-0.853,19.627,3.413v-217.6H311.467c-2.56,0-4.267-1.707-4.267-4.267V72.533c0-2.56,1.707-4.267,4.267-4.267 h115.2v-25.6h-115.2c-2.56,0-4.267-1.707-4.267-4.267s1.707-4.267,4.267-4.267h119.467c2.56,0,4.267,1.707,4.267,4.267v34.133 c0,2.56-1.707,4.267-4.267,4.267h-115.2v93.867H499.2c2.56,0,4.267,1.707,4.267,4.267c0,2.56-1.707,4.267-4.267,4.267h-29.867 v59.733H499.2c2.56,0,4.267,1.707,4.267,4.267v238.933C503.467,494.08,494.08,503.467,482.133,503.467z M418.133,238.933H460.8 V179.2h-42.667V238.933z M366.933,238.933H409.6V179.2h-42.667V238.933z M315.733,238.933H358.4V179.2h-42.667V238.933z M362.667,503.467c-2.56,0-4.267-1.707-4.267-4.267v-29.867h-81.067c-2.56,0-4.267-1.707-4.267-4.267V8.533H8.533V499.2 c0,2.56-1.707,4.267-4.267,4.267S0,501.76,0,499.2V4.267C0,1.707,1.707,0,4.267,0h273.067c2.56,0,4.267,1.707,4.267,4.267V460.8 h81.067c2.56,0,4.267,1.707,4.267,4.267V499.2C366.933,501.76,365.227,503.467,362.667,503.467z M328.533,503.467h-51.2 c-2.56,0-4.267-1.707-4.267-4.267c0-2.56,1.707-4.267,4.267-4.267h51.2c2.56,0,4.267,1.707,4.267,4.267 C332.8,501.76,331.093,503.467,328.533,503.467z M243.2,503.467H38.4c-2.56,0-4.267-1.707-4.267-4.267V328.533 c0-2.56,1.707-4.267,4.267-4.267h204.8c2.56,0,4.267,1.707,4.267,4.267V499.2C247.467,501.76,245.76,503.467,243.2,503.467z M42.667,494.933h196.267V332.8H42.667V494.933z M209.067,469.333H72.533c-2.56,0-4.267-1.707-4.267-4.267 c0-2.56,1.707-4.267,4.267-4.267h136.533c2.56,0,4.267,1.707,4.267,4.267C213.333,467.627,211.627,469.333,209.067,469.333z M362.667,435.2c-2.56,0-4.267-1.707-4.267-4.267V384h-12.8c-2.56,0-4.267-1.707-4.267-4.267c0-2.56,1.707-4.267,4.267-4.267h12.8 v-59.733h-46.933c-2.56,0-4.267-1.707-4.267-4.267c0-2.56,1.707-4.267,4.267-4.267h51.2c2.56,0,4.267,1.707,4.267,4.267v119.467 C366.933,433.493,365.227,435.2,362.667,435.2z M209.067,435.2H72.533c-2.56,0-4.267-1.707-4.267-4.267 c0-2.56,1.707-4.267,4.267-4.267h136.533c2.56,0,4.267,1.707,4.267,4.267C213.333,433.493,211.627,435.2,209.067,435.2z M209.067,401.067H72.533c-2.56,0-4.267-1.707-4.267-4.267s1.707-4.267,4.267-4.267h136.533c2.56,0,4.267,1.707,4.267,4.267 S211.627,401.067,209.067,401.067z M465.067,366.933H396.8c-2.56,0-4.267-1.707-4.267-4.267v-51.2c0-2.56,1.707-4.267,4.267-4.267 h68.267c2.56,0,4.267,1.707,4.267,4.267v51.2C469.333,365.227,467.627,366.933,465.067,366.933z M401.067,358.4H460.8v-42.667 h-59.733V358.4z M209.067,366.933H72.533c-2.56,0-4.267-1.707-4.267-4.267s1.707-4.267,4.267-4.267h136.533 c2.56,0,4.267,1.707,4.267,4.267S211.627,366.933,209.067,366.933z M226.133,213.333H55.467c-2.56,0-4.267-1.707-4.267-4.267V72.533 c0-2.56,1.707-4.267,4.267-4.267h170.667c2.56,0,4.267,1.707,4.267,4.267v136.533C230.4,211.627,228.693,213.333,226.133,213.333z M179.2,204.8h42.667v-93.867H179.2V204.8z M110.933,204.8h59.733v-93.867h-59.733V204.8z M59.733,204.8H102.4v-93.867H59.733V204.8 z M174.933,102.4h46.933V76.8H59.733v25.6H174.933z"/> </g>
</svg>