<!DOCTYPE svg PUBLIC "-//W3C//DTD SVG 1.1//EN" "http://www.w3.org/Graphics/SVG/1.1/DTD/svg11.dtd">
<!-- Uploaded to: SVG Repo, www.svgrepo.com, Transformed by: SVG Repo Mixer Tools -->
<svg width="183px" height="183px" viewBox="-5.2 -5.2 30.40 30.40" xmlns="http://www.w3.org/2000/svg" fill="#106ed9" stroke="#106ed9" stroke-width="0.0002">
<g id="SVGRepo_bgCarrier" stroke-width="0">
<path transform="translate(-5.2, -5.2), scale(1.9)" fill="#7ed0ec" d="M9.166.33a2.25 2.25 0 00-2.332 0l-5.25 3.182A2.25 2.25 0 00.5 5.436v5.128a2.25 2.25 0 001.084 1.924l5.25 3.182a2.25 2.25 0 002.332 0l5.25-3.182a2.25 2.25 0 001.084-1.924V5.436a2.25 2.25 0 00-1.084-1.924L9.166.33z" strokewidth="0"/>
</g>
<g id="SVGRepo_tracerCarrier" stroke-linecap="round" stroke-linejoin="round"/>
<g id="SVGRepo_iconCarrier"> <rect x="0" fill="none" width="20" height="20"/> <g> <path d="M1 10c.41.29.96.43 1.5.43.55 0 1.09-.14 1.5-.43.62-.46 1-1.17 1-2 0 .83.37 1.54 1 2 .41.29.96.43 1.5.43.55 0 1.09-.14 1.5-.43.62-.46 1-1.17 1-2 0 .83.37 1.54 1 2 .41.29.96.43 1.51.43.54 0 1.08-.14 1.49-.43.62-.46 1-1.17 1-2 0 .83.37 1.54 1 2 .41.29.96.43 1.5.43.55 0 1.09-.14 1.5-.43.63-.46 1-1.17 1-2V7l-3-7H4L0 7v1c0 .83.37 1.54 1 2zm2 8.99h5v-5h4v5h5v-7c-.37-.05-.72-.22-1-.43-.63-.45-1-.73-1-1.56 0 .83-.38 1.11-1 1.56-.41.3-.95.43-1.49.44-.55 0-1.1-.14-1.51-.44-.63-.45-1-.73-1-1.56 0 .83-.38 1.11-1 1.56-.41.3-.95.43-1.5.44-.54 0-1.09-.14-1.5-.44-.63-.45-1-.73-1-1.57 0 .84-.38 1.12-1 1.57-.29.21-.63.38-1 .44v6.99z"/> </g> </g>
</svg>