<!DOCTYPE svg PUBLIC "-//W3C//DTD SVG 1.1//EN" "http://www.w3.org/Graphics/SVG/1.1/DTD/svg11.dtd">
<!-- Uploaded to: SVG Repo, www.svgrepo.com, Transformed by: SVG Repo Mixer Tools -->
<svg version="1.1" id="Uploaded to svgrepo.com" xmlns="http://www.w3.org/2000/svg" xmlns:xlink="http://www.w3.org/1999/xlink" width="197px" height="197px" viewBox="-5.44 -5.44 42.88 42.88" xml:space="preserve" fill="#000000">
<g id="SVGRepo_bgCarrier" stroke-width="0">
<path transform="translate(-5.44, -5.44), scale(2.68)" fill="#7ed0ec" d="M9.166.33a2.25 2.25 0 00-2.332 0l-5.25 3.182A2.25 2.25 0 00.5 5.436v5.128a2.25 2.25 0 001.084 1.924l5.25 3.182a2.25 2.25 0 002.332 0l5.25-3.182a2.25 2.25 0 001.084-1.924V5.436a2.25 2.25 0 00-1.084-1.924L9.166.33z" strokewidth="0"/>
</g>
<g id="SVGRepo_tracerCarrier" stroke-linecap="round" stroke-linejoin="round"/>
<g id="SVGRepo_iconCarrier"> <style type="text/css"> .sharpcorners_een{fill:#106ed9;} .st0{fill:#106ed9;} </style> <path class="sharpcorners_een" d="M24,12l-3-4h-2V4l-3-4l-3,4v4h-2l-3,4H7v20h8v-4h2v4h8V12H24z M12,30h-2v-2h2V30z M12,25h-2v-2h2 V25z M12,20h-2v-2h2V20z M12,15h-2v-2h2V15z M17,25h-2v-2h2V25z M17,20h-2v-2h2V20z M17,15h-2v-2h2V15z M17,7h-2V5h2V7z M22,30h-2 v-2h2V30z M22,25h-2v-2h2V25z M22,20h-2v-2h2V20z M22,15h-2v-2h2V15z"/> </g>
</svg>